<?xml version="1.0" encoding="UTF-8"?>
<svg id="uuid-3f7db5fc-4cdd-498e-9f1a-1d6402ef7e39" data-name="Layer 1" xmlns="http://www.w3.org/2000/svg" viewBox="0 0 454.11 393.54">
  <defs>
    <style>
      .uuid-16d81e84-7525-46ab-ad37-e317cc03a194 {
        stroke-width: 0px;
      }
    </style>
  </defs>
  <path class="uuid-16d81e84-7525-46ab-ad37-e317cc03a194" d="m152.74,132.54h-2v-19.02l-10.98,19.02h-51.4l-10.98-19.02v19.02h-2v-19.02l-10.98,19.02H12.98l-10.98-19.02v19.02H0V0h2v19.03L12.98,0h51.4l10.98,19.03V0h2v19.03L88.35,0h51.4l10.98,19.03V0h2v132.54Zm-12.41-88.03l10.41,18.03V26.49l-10.41,18.02Zm0,43.51l10.41,18.03v-36.05l-10.41,18.02Zm-127.92,0l-10.41-18.02v36.05l10.41-18.03Zm0-43.51L2,26.49v36.05l10.41-18.03ZM63.23,2h-20.81l31.22,18.03L63.23,2Zm15.87,18.03L110.32,2h-20.81l-10.41,18.03ZM116.78,3.73l10.41,18.03h20.81L116.78,3.73Zm15.61,52.53l-15.61-9.01,10.41,18.03h20.81l-15.61-9.01ZM4.73,65.27h20.81l10.41-18.03-31.22,18.03Zm72.64,40.78l10.41-18.03-10.41-18.02v36.05h0Zm-2-79.56l-10.41,18.02,10.41,18.02V26.49h0Zm35.95,20.76l-31.22,18.03h20.82l10.41-18.03Zm-10.41,20.03h-20.81l31.22,18.02-10.41-18.02Zm-28.28-2l-31.22-18.03,10.41,18.03h20.82Zm-30.22-19.76h0l31.22,18.03-10.41-18.03h-20.81Zm-2.73,2.73v36.05l10.41-18.02-10.41-18.02Zm1.73,37.05l31.22-18.02h-20.81l-10.41,18.02Zm68.9,1.73h0l-31.22-18.03,10.41,18.03h20.81Zm2.73-2.73v-36.05l-10.41,18.02,10.41,18.02Zm-2.73-38.78h-20.81l-10.41,18.03,31.22-18.03h0Zm-22.54-1l-10.41-18.02h0v36.05l10.41-18.02Zm-29.75-10.01l-15.61,9.01h20.81l10.41-18.02h0s-15.61,9.01-15.61,9.01Zm-26.41,39.29l6.07,10.51v-36.05l-2.33,4.03-8.08,13.99,4.34,7.52Zm10.8,13.24h20.81l10.41-18.03-31.22,18.03h0Zm22.54,1l10.41,18.03h0v-36.05l-10.41,18.02Zm45.36,1h-20.81l-10.41,18.03h0s0,0,0,0l31.22-18.03Zm15.14-22.76l-10.41-18.03v36.05l10.41-18.02Zm-46.36-40.78h0s10.41,18.02,10.41,18.02h20.81l-31.22-18.02ZM4.73,67.27l15.61,9.01,15.61,9.01-3.3-5.72-7.11-12.31H4.73Zm53.29,30.77l15.61,9.01h0s0,0,0,0l-10.41-18.03h-20.81l15.61,9.01Zm74.37-21.76l15.61-9.01h-20.81l-10.41,18.02,15.61-9.01Zm15.61-52.53h-20.81l-10.41,18.02,31.22-18.02ZM115.05,4.73v36.05l10.41-18.02-10.41-18.03Zm-12.41,18.03l10.41,18.02V4.73l-10.41,18.03Zm-22.55,1l31.22,18.02-10.4-18.02h-20.81Zm-7.46,0h-20.81l-10.41,18.02,31.22-18.02ZM39.68,4.73v36.05l10.41-18.02-10.41-18.03Zm-12.41,18.03l10.41,18.02V4.73l-10.41,18.03Zm-22.54,1l31.22,18.02-10.41-18.02H4.73Zm-1,1.73l10.41,18.02h20.81L3.73,25.49Zm10.41,20.02L3.73,63.54l31.22-18.03H14.14Zm5.2,32.5l-15.61-9.01,10.41,18.02h20.81l-15.61-9.01Zm-5.2,11.01l-10.41,18.03,31.22-18.03H14.14Zm-9.41,19.76h20.81l10.41-18.03-31.22,18.03Zm32.95,19.02v-36.05l-2.33,4.03-8.08,13.99,10.41,18.02Zm12.41-18.02l-10.41-18.03v36.05l10.41-18.02Zm22.55-1h0l-15.61-9.01-15.61-9.01,10.41,18.02h20.81Zm7.46,0h20.81l10.41-18.02-31.22,18.02h0Zm32.95,19.02v-36.05l-10.41,18.03,10.41,18.02Zm12.41-18.02l-10.41-18.03v36.05l10.41-18.02Zm22.55-1l-31.22-18.03,10.41,18.03h20.81Zm1-1.73l-10.41-18.03h-20.81l31.22,18.03Zm0-38.05l-15.61,9.01-15.61,9.01h20.81l10.41-18.02Zm0-5.47l-10.41-18.03h-20.81l15.61,9.01,15.61,9.01Zm0-38.05l-31.22,18.02h20.81l10.41-18.02Zm-68.9-3.73h20.81l10.41-18.02-31.22,18.02ZM41.42,3.73l10.41,18.02h20.81L41.42,3.73Zm-21.07,9.01l-15.61,9.01h20.81L35.95,3.73l-15.61,9.01Zm-6.2,117.8h20.81L3.73,112.52l10.41,18.02Zm21.81-1.73l-10.41-18.02H4.73l31.22,18.02Zm36.68-18.02h-20.81l-10.41,18.02,31.22-18.02Zm-30.22,19.76h20.81l10.41-18.02-31.22,18.02Zm47.09,0h20.81l-31.22-18.02,10.41,18.02Zm21.81-1.73l-10.41-18.02h-20.81l31.22,18.02Zm36.68-18.02h-20.81l-10.41,18.02,31.22-18.02Zm-30.22,19.76h20.81l10.41-18.02-31.22,18.02Zm0-128.54l31.22,18.03-10.41-18.03h-20.81Zm-82.83,0H14.14L4.73,18.29l-1,1.73,15.61-9.01,15.61-9.01Z"/>
  <path class="uuid-16d81e84-7525-46ab-ad37-e317cc03a194" d="m303.48,132.54h-2v-19.02l-10.98,19.02h-51.4l-10.98-19.02v19.02h-2v-19.02l-10.98,19.02h-51.4l-10.98-19.02v19.02h-2V0h2v19.03L163.73,0h51.4l10.98,19.03V0h2v19.03L239.1,0h51.4l10.98,19.03V0h2v132.54Zm-12.41-88.03l10.41,18.03V26.49l-10.41,18.02Zm0,43.51l10.41,18.03v-36.05l-10.41,18.02Zm-127.92,0l-10.41-18.02v36.05l10.41-18.03Zm0-43.51l-10.41-18.02v36.05l10.41-18.03ZM213.98,2h-20.81l31.22,18.03-10.41-18.03Zm15.87,18.03l31.22-18.03h-20.81l-10.41,18.03Zm37.68-16.29l10.41,18.03h20.81l-31.22-18.03Zm15.61,52.53l-15.61-9.01,10.41,18.03h20.81l-15.61-9.01Zm-127.66,9.01h20.81l10.41-18.03-31.22,18.03Zm72.64,40.78l10.41-18.03-10.41-18.02v36.05h0Zm-2-79.56l-10.41,18.02,10.41,18.02V26.49h0Zm35.95,20.76l-31.22,18.03h20.82l10.41-18.03Zm-10.41,20.03h-20.81l31.22,18.02-10.41-18.02Zm-28.27-2l-31.22-18.03,10.41,18.03h20.82Zm-30.22-19.76h0l31.22,18.03-10.41-18.03h-20.81Zm-2.73,2.73v36.05l10.41-18.02-10.41-18.02Zm1.73,37.05l31.22-18.02h-20.81l-10.41,18.02Zm68.9,1.73h0l-31.22-18.03,10.41,18.03h20.81Zm2.73-2.73v-36.05l-10.41,18.02,10.41,18.02Zm-2.73-38.78h-20.81l-10.41,18.03,31.22-18.03h0Zm-22.54-1l-10.41-18.02h0v36.05l10.41-18.02Zm-29.75-10.01l-15.61,9.01h20.81l10.41-18.02h0s-15.61,9.01-15.61,9.01Zm-26.41,39.29l6.07,10.51v-36.05l-2.33,4.03-8.08,13.99,4.34,7.52Zm10.8,13.24h20.81l10.41-18.03-31.22,18.03h0Zm22.54,1l10.41,18.03h0v-36.05l-10.41,18.02Zm45.36,1h-20.81l-10.41,18.03h0s0,0,0,0l31.22-18.03Zm15.14-22.76l-10.41-18.03v36.05l10.41-18.02Zm-46.36-40.78h0s10.41,18.02,10.41,18.02h20.81l-31.22-18.02Zm-74.37,41.78l15.61,9.01,15.61,9.01-3.3-5.72-7.11-12.31h-20.81Zm53.29,30.77l15.61,9.01h0s0,0,0,0l-10.41-18.03h-20.81l15.61,9.01Zm74.37-21.76l15.61-9.01h-20.81l-10.41,18.02,15.61-9.01Zm15.61-52.53h-20.81l-10.41,18.02,31.22-18.02Zm-32.95-19.03v36.05l10.41-18.02-10.41-18.03Zm-12.41,18.03l10.41,18.02V4.73l-10.41,18.03Zm-22.55,1l31.22,18.02-10.4-18.02h-20.81Zm-7.46,0h-20.81l-10.41,18.02,31.22-18.02Zm-32.95-19.03v36.05l10.41-18.02-10.41-18.03Zm-12.41,18.03l10.41,18.02V4.73l-10.41,18.03Zm-22.54,1l31.22,18.02-10.41-18.02h-20.81Zm-1,1.73l10.41,18.02h20.81l-31.22-18.02Zm10.41,20.02l-10.41,18.03,31.22-18.03h-20.81Zm5.2,32.5l-15.61-9.01,10.41,18.02h20.81l-15.61-9.01Zm-5.2,11.01l-10.41,18.03,31.22-18.03h-20.81Zm-9.41,19.76h20.81l10.41-18.03-31.22,18.03Zm32.95,19.02v-36.05l-2.33,4.03-8.08,13.99,10.41,18.02Zm12.41-18.02l-10.41-18.03v36.05l10.41-18.02Zm22.55-1h0l-15.61-9.01-15.61-9.01,10.41,18.02h20.81Zm7.46,0h20.81l10.41-18.02-31.22,18.02h0Zm32.95,19.02v-36.05l-10.41,18.03,10.41,18.02Zm12.41-18.02l-10.41-18.03v36.05l10.41-18.02Zm22.55-1l-31.22-18.03,10.41,18.03h20.81Zm1-1.73l-10.41-18.03h-20.81l31.22,18.03Zm0-38.05l-15.61,9.01-15.61,9.01h20.81l10.41-18.02Zm0-5.47l-10.41-18.03h-20.81l15.61,9.01,15.61,9.01Zm0-38.05l-31.22,18.02h20.81l10.41-18.02Zm-68.9-3.73h20.81l10.41-18.02-31.22,18.02ZM192.16,3.73l10.41,18.02h20.81l-31.22-18.02Zm-21.07,9.01l-15.61,9.01h20.81l10.41-18.03-15.61,9.01Zm-6.2,117.8h20.81l-31.22-18.02,10.41,18.02Zm21.81-1.73l-10.41-18.02h-20.81l31.22,18.02Zm36.68-18.02h-20.81l-10.41,18.02,31.22-18.02Zm-30.22,19.76h20.81l10.41-18.02-31.22,18.02Zm47.09,0h20.81l-31.22-18.02,10.41,18.02Zm21.81-1.73l-10.41-18.02h-20.81l31.22,18.02Zm36.68-18.02h-20.81l-10.41,18.02,31.22-18.02Zm-30.22,19.76h20.81l10.41-18.02-31.22,18.02Zm0-128.54l31.22,18.03-10.41-18.03h-20.81Zm-82.83,0h-20.81l-9.41,16.29-1,1.73,15.61-9.01,15.61-9.01Z"/>
  <path class="uuid-16d81e84-7525-46ab-ad37-e317cc03a194" d="m152.74,263.04h-2v-19.02l-10.98,19.02h-51.4l-10.98-19.02v19.02h-2v-19.02l-10.98,19.02H12.98l-10.98-19.02v19.02H0v-132.54h2v19.03l10.98-19.03h51.4l10.98,19.03v-19.03h2v19.03l10.98-19.03h51.4l10.98,19.03v-19.03h2v132.54Zm-12.41-88.03l10.41,18.03v-36.05l-10.41,18.02Zm0,43.51l10.41,18.03v-36.05l-10.41,18.02Zm-127.92,0l-10.41-18.02v36.05l10.41-18.03Zm0-43.51l-10.41-18.02v36.05l10.41-18.03Zm50.82-42.51h-20.81l31.22,18.03-10.41-18.03Zm15.87,18.03l31.22-18.03h-20.81l-10.41,18.03Zm37.68-16.29l10.41,18.03h20.81l-31.22-18.03Zm15.61,52.53l-15.61-9.01,10.41,18.03h20.81l-15.61-9.01Zm-127.66,9.01h20.81l10.41-18.03-31.22,18.03Zm72.64,40.78l10.41-18.03-10.41-18.02v36.05h0Zm-2-79.56l-10.41,18.02,10.41,18.02v-36.05h0Zm35.95,20.76l-31.22,18.03h20.82l10.41-18.03Zm-10.41,20.03h-20.81l31.22,18.02-10.41-18.02Zm-28.28-2l-31.22-18.03,10.41,18.03h20.82Zm-30.22-19.76h0l31.22,18.03-10.41-18.03h-20.81Zm-2.73,2.73v36.05l10.41-18.02-10.41-18.02Zm1.73,37.05l31.22-18.02h-20.81l-10.41,18.02Zm68.9,1.73h0l-31.22-18.03,10.41,18.03h20.81Zm2.73-2.73v-36.05l-10.41,18.02,10.41,18.02Zm-2.73-38.78h-20.81l-10.41,18.03,31.22-18.03h0Zm-22.54-1l-10.41-18.02h0v36.05l10.41-18.02Zm-29.75-10.01l-15.61,9.01h20.81l10.41-18.02h0s-15.61,9.01-15.61,9.01Zm-26.41,39.29l6.07,10.51v-36.05l-2.33,4.03-8.08,13.99,4.34,7.52Zm10.8,13.24h20.81l10.41-18.03-31.22,18.03h0Zm22.54,1l10.41,18.03h0v-36.05l-10.41,18.02Zm45.36,1h-20.81l-10.41,18.03h0s0,0,0,0l31.22-18.03Zm15.14-22.76l-10.41-18.03v36.05l10.41-18.02Zm-46.36-40.78h0s10.41,18.02,10.41,18.02h20.81l-31.22-18.02ZM4.73,197.77l15.61,9.01,15.61,9.01-3.3-5.72-7.11-12.31H4.73Zm53.29,30.77l15.61,9.01h0s0,0,0,0l-10.41-18.03h-20.81l15.61,9.01Zm74.37-21.76l15.61-9.01h-20.81l-10.41,18.02,15.61-9.01Zm15.61-52.53h-20.81l-10.41,18.02,31.22-18.02Zm-32.95-19.03v36.05l10.41-18.02-10.41-18.03Zm-12.41,18.03l10.41,18.02v-36.05l-10.41,18.03Zm-22.55,1l31.22,18.02-10.4-18.02h-20.81Zm-7.46,0h-20.81l-10.41,18.02,31.22-18.02Zm-32.95-19.03v36.05l10.41-18.02-10.41-18.03Zm-12.41,18.03l10.41,18.02v-36.05l-10.41,18.03Zm-22.54,1l31.22,18.02-10.41-18.02H4.73Zm-1,1.73l10.41,18.02h20.81l-31.22-18.02Zm10.41,20.02l-10.41,18.03,31.22-18.03H14.14Zm5.2,32.5l-15.61-9.01,10.41,18.02h20.81l-15.61-9.01Zm-5.2,11.01l-10.41,18.03,31.22-18.03H14.14Zm-9.41,19.76h20.81l10.41-18.03-31.22,18.03Zm32.95,19.02v-36.05l-2.33,4.03-8.08,13.99,10.41,18.02Zm12.41-18.02l-10.41-18.03v36.05l10.41-18.02Zm22.55-1h0l-15.61-9.01-15.61-9.01,10.41,18.02h20.81Zm7.46,0h20.81l10.41-18.02-31.22,18.02h0Zm32.95,19.02v-36.05l-10.41,18.03,10.41,18.02Zm12.41-18.02l-10.41-18.03v36.05l10.41-18.02Zm22.55-1l-31.22-18.03,10.41,18.03h20.81Zm1-1.73l-10.41-18.03h-20.81l31.22,18.03Zm0-38.05l-15.61,9.01-15.61,9.01h20.81l10.41-18.02Zm0-5.47l-10.41-18.03h-20.81l15.61,9.01,15.61,9.01Zm0-38.05l-31.22,18.02h20.81l10.41-18.02Zm-68.9-3.73h20.81l10.41-18.02-31.22,18.02Zm-38.68-18.02l10.41,18.02h20.81l-31.22-18.02Zm-21.07,9.01l-15.61,9.01h20.81l10.41-18.03-15.61,9.01Zm-6.2,117.8h20.81l-31.22-18.02,10.41,18.02Zm21.81-1.73l-10.41-18.02H4.73l31.22,18.02Zm36.68-18.02h-20.81l-10.41,18.02,31.22-18.02Zm-30.22,19.76h20.81l10.41-18.02-31.22,18.02Zm47.09,0h20.81l-31.22-18.02,10.41,18.02Zm21.81-1.73l-10.41-18.02h-20.81l31.22,18.02Zm36.68-18.02h-20.81l-10.41,18.02,31.22-18.02Zm-30.22,19.76h20.81l10.41-18.02-31.22,18.02Zm0-128.54l31.22,18.03-10.41-18.03h-20.81Zm-82.83,0H14.14l-9.41,16.29-1,1.73,15.61-9.01,15.61-9.01Z"/>
  <path class="uuid-16d81e84-7525-46ab-ad37-e317cc03a194" d="m152.74,393.54h-2v-19.02l-10.98,19.02h-51.4l-10.98-19.02v19.02h-2v-19.02l-10.98,19.02H12.98l-10.98-19.02v19.02H0v-132.54h2v19.03l10.98-19.03h51.4l10.98,19.03v-19.03h2v19.03l10.98-19.03h51.4l10.98,19.03v-19.03h2v132.54Zm-12.41-88.03l10.41,18.03v-36.05l-10.41,18.02Zm0,43.51l10.41,18.03v-36.05l-10.41,18.02Zm-127.92,0l-10.41-18.02v36.05l10.41-18.03Zm0-43.51l-10.41-18.02v36.05l10.41-18.03Zm50.82-42.51h-20.81l31.22,18.03-10.41-18.03Zm15.87,18.03l31.22-18.03h-20.81l-10.41,18.03Zm37.68-16.29l10.41,18.03h20.81l-31.22-18.03Zm15.61,52.53l-15.61-9.01,10.41,18.03h20.81l-15.61-9.01Zm-127.66,9.01h20.81l10.41-18.03-31.22,18.03Zm72.64,40.78l10.41-18.03-10.41-18.02v36.05h0Zm-2-79.56l-10.41,18.02,10.41,18.02v-36.05h0Zm35.95,20.76l-31.22,18.03h20.82l10.41-18.03Zm-10.41,20.03h-20.81l31.22,18.02-10.41-18.02Zm-28.28-2l-31.22-18.03,10.41,18.03h20.82Zm-30.22-19.76h0l31.22,18.03-10.41-18.03h-20.81Zm-2.73,2.73v36.05l10.41-18.02-10.41-18.02Zm1.73,37.05l31.22-18.02h-20.81l-10.41,18.02Zm68.9,1.73h0l-31.22-18.03,10.41,18.03h20.81Zm2.73-2.73v-36.05l-10.41,18.02,10.41,18.02Zm-2.73-38.78h-20.81l-10.41,18.03,31.22-18.03h0Zm-22.54-1l-10.41-18.02h0v36.05l10.41-18.02Zm-29.75-10.01l-15.61,9.01h20.81l10.41-18.02h0s-15.61,9.01-15.61,9.01Zm-26.41,39.28l6.07,10.51v-36.05l-2.33,4.03-8.08,13.99,4.34,7.52Zm10.8,13.24h20.81l10.41-18.03-31.22,18.03h0Zm22.54,1l10.41,18.03h0v-36.05l-10.41,18.02Zm45.36,1h-20.81l-10.41,18.03h0s0,0,0,0l31.22-18.03Zm15.14-22.76l-10.41-18.03v36.05l10.41-18.02Zm-46.36-40.78h0s10.41,18.02,10.41,18.02h20.81l-31.22-18.02ZM4.73,328.27l15.61,9.01,15.61,9.01-3.3-5.72-7.11-12.31H4.73Zm53.29,30.77l15.61,9.01h0s0,0,0,0l-10.41-18.03h-20.81l15.61,9.01Zm74.37-21.76l15.61-9.01h-20.81l-10.41,18.02,15.61-9.01Zm15.61-52.53h-20.81l-10.41,18.02,31.22-18.02Zm-32.95-19.03v36.05l10.41-18.02-10.41-18.03Zm-12.41,18.03l10.41,18.02v-36.05l-10.41,18.03Zm-22.55,1l31.22,18.02-10.4-18.02h-20.81Zm-7.46,0h-20.81l-10.41,18.02,31.22-18.02Zm-32.95-19.03v36.05l10.41-18.02-10.41-18.03Zm-12.41,18.03l10.41,18.02v-36.05l-10.41,18.03Zm-22.54,1l31.22,18.02-10.41-18.02H4.73Zm-1,1.73l10.41,18.02h20.81l-31.22-18.02Zm10.41,20.02l-10.41,18.03,31.22-18.03H14.14Zm5.2,32.5l-15.61-9.01,10.41,18.02h20.81l-15.61-9.01Zm-5.2,11.01l-10.41,18.03,31.22-18.03H14.14Zm-9.41,19.76h20.81l10.41-18.03-31.22,18.03Zm32.95,19.02v-36.05l-2.33,4.03-8.08,13.99,10.41,18.02Zm12.41-18.02l-10.41-18.03v36.05l10.41-18.02Zm22.55-1h0l-15.61-9.01-15.61-9.01,10.41,18.02h20.81Zm7.46,0h20.81l10.41-18.02-31.22,18.02h0Zm32.95,19.02v-36.05l-10.41,18.03,10.41,18.02Zm12.41-18.02l-10.41-18.03v36.05l10.41-18.02Zm22.55-1l-31.22-18.03,10.41,18.03h20.81Zm1-1.73l-10.41-18.03h-20.81l31.22,18.03Zm0-38.05l-15.61,9.01-15.61,9.01h20.81l10.41-18.02Zm0-5.47l-10.41-18.03h-20.81l15.61,9.01,15.61,9.01Zm0-38.05l-31.22,18.02h20.81l10.41-18.02Zm-68.9-3.73h20.81l10.41-18.02-31.22,18.02Zm-38.68-18.02l10.41,18.02h20.81l-31.22-18.02Zm-21.07,9.01l-15.61,9.01h20.81l10.41-18.03-15.61,9.01Zm-6.2,117.8h20.81l-31.22-18.02,10.41,18.02Zm21.81-1.73l-10.41-18.02H4.73l31.22,18.02Zm36.68-18.02h-20.81l-10.41,18.02,31.22-18.02Zm-30.22,19.76h20.81l10.41-18.02-31.22,18.02Zm47.09,0h20.81l-31.22-18.02,10.41,18.02Zm21.81-1.73l-10.41-18.02h-20.81l31.22,18.02Zm36.68-18.02h-20.81l-10.41,18.02,31.22-18.02Zm-30.22,19.76h20.81l10.41-18.02-31.22,18.02Zm0-128.54l31.22,18.03-10.41-18.03h-20.81Zm-82.83,0H14.14l-9.41,16.29-1,1.73,15.61-9.01,15.61-9.01Z"/>
  <path class="uuid-16d81e84-7525-46ab-ad37-e317cc03a194" d="m303.48,263.04h-2v-19.02l-10.98,19.02h-51.4l-10.98-19.02v19.02h-2v-19.02l-10.98,19.02h-51.4l-10.98-19.02v19.02h-2v-132.54h2v19.03l10.98-19.03h51.4l10.98,19.03v-19.03h2v19.03l10.98-19.03h51.4l10.98,19.03v-19.03h2v132.54Zm-12.41-88.03l10.41,18.03v-36.05l-10.41,18.02Zm0,43.51l10.41,18.03v-36.05l-10.41,18.02Zm-127.92,0l-10.41-18.02v36.05l10.41-18.03Zm0-43.51l-10.41-18.02v36.05l10.41-18.03Zm50.82-42.51h-20.81l31.22,18.03-10.41-18.03Zm15.87,18.03l31.22-18.03h-20.81l-10.41,18.03Zm37.68-16.29l10.41,18.03h20.81l-31.22-18.03Zm15.61,52.53l-15.61-9.01,10.41,18.03h20.81l-15.61-9.01Zm-127.66,9.01h20.81l10.41-18.03-31.22,18.03Zm72.64,40.78l10.41-18.03-10.41-18.02v36.05h0Zm-2-79.56l-10.41,18.02,10.41,18.02v-36.05h0Zm35.95,20.76l-31.22,18.03h20.82l10.41-18.03Zm-10.41,20.03h-20.81l31.22,18.02-10.41-18.02Zm-28.27-2l-31.22-18.03,10.41,18.03h20.82Zm-30.22-19.76h0l31.22,18.03-10.41-18.03h-20.81Zm-2.73,2.73v36.05l10.41-18.02-10.41-18.02Zm1.73,37.05l31.22-18.02h-20.81l-10.41,18.02Zm68.9,1.73h0l-31.22-18.03,10.41,18.03h20.81Zm2.73-2.73v-36.05l-10.41,18.02,10.41,18.02Zm-2.73-38.78h-20.81l-10.41,18.03,31.22-18.03h0Zm-22.54-1l-10.41-18.02h0v36.05l10.41-18.02Zm-29.75-10.01l-15.61,9.01h20.81l10.41-18.02h0s-15.61,9.01-15.61,9.01Zm-26.41,39.29l6.07,10.51v-36.05l-2.33,4.03-8.08,13.99,4.34,7.52Zm10.8,13.24h20.81l10.41-18.03-31.22,18.03h0Zm22.54,1l10.41,18.03h0v-36.05l-10.41,18.02Zm45.36,1h-20.81l-10.41,18.03h0s0,0,0,0l31.22-18.03Zm15.14-22.76l-10.41-18.03v36.05l10.41-18.02Zm-46.36-40.78h0s10.41,18.02,10.41,18.02h20.81l-31.22-18.02Zm-74.37,41.78l15.61,9.01,15.61,9.01-3.3-5.72-7.11-12.31h-20.81Zm53.29,30.77l15.61,9.01h0s0,0,0,0l-10.41-18.03h-20.81l15.61,9.01Zm74.37-21.76l15.61-9.01h-20.81l-10.41,18.02,15.61-9.01Zm15.61-52.53h-20.81l-10.41,18.02,31.22-18.02Zm-32.95-19.03v36.05l10.41-18.02-10.41-18.03Zm-12.41,18.03l10.41,18.02v-36.05l-10.41,18.03Zm-22.55,1l31.22,18.02-10.4-18.02h-20.81Zm-7.46,0h-20.81l-10.41,18.02,31.22-18.02Zm-32.95-19.03v36.05l10.41-18.02-10.41-18.03Zm-12.41,18.03l10.41,18.02v-36.05l-10.41,18.03Zm-22.54,1l31.22,18.02-10.41-18.02h-20.81Zm-1,1.73l10.41,18.02h20.81l-31.22-18.02Zm10.41,20.02l-10.41,18.03,31.22-18.03h-20.81Zm5.2,32.5l-15.61-9.01,10.41,18.02h20.81l-15.61-9.01Zm-5.2,11.01l-10.41,18.03,31.22-18.03h-20.81Zm-9.41,19.76h20.81l10.41-18.03-31.22,18.03Zm32.95,19.02v-36.05l-2.33,4.03-8.08,13.99,10.41,18.02Zm12.41-18.02l-10.41-18.03v36.05l10.41-18.02Zm22.55-1h0l-15.61-9.01-15.61-9.01,10.41,18.02h20.81Zm7.46,0h20.81l10.41-18.02-31.22,18.02h0Zm32.95,19.02v-36.05l-10.41,18.03,10.41,18.02Zm12.41-18.02l-10.41-18.03v36.05l10.41-18.02Zm22.55-1l-31.22-18.03,10.41,18.03h20.81Zm1-1.73l-10.41-18.03h-20.81l31.22,18.03Zm0-38.05l-15.61,9.01-15.61,9.01h20.81l10.41-18.02Zm0-5.47l-10.41-18.03h-20.81l15.61,9.01,15.61,9.01Zm0-38.05l-31.22,18.02h20.81l10.41-18.02Zm-68.9-3.73h20.81l10.41-18.02-31.22,18.02Zm-38.68-18.02l10.41,18.02h20.81l-31.22-18.02Zm-21.07,9.01l-15.61,9.01h20.81l10.41-18.03-15.61,9.01Zm-6.2,117.8h20.81l-31.22-18.02,10.41,18.02Zm21.81-1.73l-10.41-18.02h-20.81l31.22,18.02Zm36.68-18.02h-20.81l-10.41,18.02,31.22-18.02Zm-30.22,19.76h20.81l10.41-18.02-31.22,18.02Zm47.09,0h20.81l-31.22-18.02,10.41,18.02Zm21.81-1.73l-10.41-18.02h-20.81l31.22,18.02Zm36.68-18.02h-20.81l-10.41,18.02,31.22-18.02Zm-30.22,19.76h20.81l10.41-18.02-31.22,18.02Zm0-128.54l31.22,18.03-10.41-18.03h-20.81Zm-82.83,0h-20.81l-9.41,16.29-1,1.73,15.61-9.01,15.61-9.01Z"/>
  <path class="uuid-16d81e84-7525-46ab-ad37-e317cc03a194" d="m454.11,132.54h-2v-19.02l-10.98,19.02h-51.4l-10.98-19.02v19.02h-2v-19.02l-10.98,19.02h-51.4l-10.98-19.02v19.02h-2V0h2v19.03L314.36,0h51.4l10.98,19.03V0h2v19.03L389.73,0h51.4l10.98,19.03V0h2v132.54Zm-12.41-88.03l10.41,18.03V26.49l-10.41,18.02Zm0,43.51l10.41,18.03v-36.05l-10.41,18.02Zm-127.92,0l-10.41-18.02v36.05l10.41-18.03Zm0-43.51l-10.41-18.02v36.05l10.41-18.03ZM364.6,2h-20.81l31.22,18.03-10.41-18.03Zm15.87,18.03l31.22-18.03h-20.81l-10.41,18.03Zm37.68-16.29l10.41,18.03h20.81l-31.22-18.03Zm15.61,52.53l-15.61-9.01,10.41,18.03h20.81l-15.61-9.01Zm-127.66,9.01h20.81l10.41-18.03-31.22,18.03Zm72.64,40.78l10.41-18.03-10.41-18.02v36.05h0Zm-2-79.56l-10.41,18.02,10.41,18.02V26.49h0Zm35.95,20.76l-31.22,18.03h20.82l10.41-18.03Zm-10.41,20.03h-20.81l31.22,18.02-10.41-18.02Zm-28.27-2l-31.22-18.03,10.41,18.03h20.82Zm-30.22-19.76h0l31.22,18.03-10.41-18.03h-20.81Zm-2.73,2.73v36.05l10.41-18.02-10.41-18.02Zm1.73,37.05l31.22-18.02h-20.81l-10.41,18.02Zm68.9,1.73h0l-31.22-18.03,10.41,18.03h20.81Zm2.73-2.73v-36.05l-10.41,18.02,10.41,18.02Zm-2.73-38.78h-20.81l-10.41,18.03,31.22-18.03h0Zm-22.54-1l-10.41-18.02h0v36.05l10.41-18.02Zm-29.75-10.01l-15.61,9.01h20.81l10.41-18.02h0s-15.61,9.01-15.61,9.01Zm-26.41,39.29l6.07,10.51v-36.05l-2.33,4.03-8.08,13.99,4.34,7.52Zm10.8,13.24h20.81l10.41-18.03-31.22,18.03h0Zm22.54,1l10.41,18.03h0v-36.05l-10.41,18.02Zm45.36,1h-20.81l-10.41,18.03h0s0,0,0,0l31.22-18.03Zm15.14-22.76l-10.41-18.03v36.05l10.41-18.02Zm-46.36-40.78h0s10.41,18.02,10.41,18.02h20.81l-31.22-18.02Zm-74.37,41.78l15.61,9.01,15.61,9.01-3.3-5.72-7.11-12.31h-20.81Zm53.29,30.77l15.61,9.01h0s0,0,0,0l-10.41-18.03h-20.81l15.61,9.01Zm74.37-21.76l15.61-9.01h-20.81l-10.41,18.02,15.61-9.01Zm15.61-52.53h-20.81l-10.41,18.02,31.22-18.02Zm-32.95-19.03v36.05l10.41-18.02-10.41-18.03Zm-12.41,18.03l10.41,18.02V4.73l-10.41,18.03Zm-22.55,1l31.22,18.02-10.4-18.02h-20.81Zm-7.46,0h-20.81l-10.41,18.02,31.22-18.02Zm-32.95-19.03v36.05l10.41-18.02-10.41-18.03Zm-12.41,18.03l10.41,18.02V4.73l-10.41,18.03Zm-22.54,1l31.22,18.02-10.41-18.02h-20.81Zm-1,1.73l10.41,18.02h20.81l-31.22-18.02Zm10.41,20.02l-10.41,18.03,31.22-18.03h-20.81Zm5.2,32.5l-15.61-9.01,10.41,18.02h20.81l-15.61-9.01Zm-5.2,11.01l-10.41,18.03,31.22-18.03h-20.81Zm-9.41,19.76h20.81l10.41-18.03-31.22,18.03Zm32.95,19.02v-36.05l-2.33,4.03-8.08,13.99,10.41,18.02Zm12.41-18.02l-10.41-18.03v36.05l10.41-18.02Zm22.55-1h0l-15.61-9.01-15.61-9.01,10.41,18.02h20.81Zm7.46,0h20.81l10.41-18.02-31.22,18.02h0Zm32.95,19.02v-36.05l-10.41,18.03,10.41,18.02Zm12.41-18.02l-10.41-18.03v36.05l10.41-18.02Zm22.55-1l-31.22-18.03,10.41,18.03h20.81Zm1-1.73l-10.41-18.03h-20.81l31.22,18.03Zm0-38.05l-15.61,9.01-15.61,9.01h20.81l10.41-18.02Zm0-5.47l-10.41-18.03h-20.81l15.61,9.01,15.61,9.01Zm0-38.05l-31.22,18.02h20.81l10.41-18.02Zm-68.9-3.73h20.81l10.41-18.02-31.22,18.02Zm-38.68-18.02l10.41,18.02h20.81l-31.22-18.02Zm-21.07,9.01l-15.61,9.01h20.81l10.41-18.03-15.61,9.01Zm-6.2,117.8h20.81l-31.22-18.02,10.41,18.02Zm21.81-1.73l-10.41-18.02h-20.81l31.22,18.02Zm36.68-18.02h-20.81l-10.41,18.02,31.22-18.02Zm-30.22,19.76h20.81l10.41-18.02-31.22,18.02Zm47.09,0h20.81l-31.22-18.02,10.41,18.02Zm21.81-1.73l-10.41-18.02h-20.81l31.22,18.02Zm36.68-18.02h-20.81l-10.41,18.02,31.22-18.02Zm-30.22,19.76h20.81l10.41-18.02-31.22,18.02Zm0-128.54l31.22,18.03-10.41-18.03h-20.81Zm-82.83,0h-20.81l-9.41,16.29-1,1.73,15.61-9.01,15.61-9.01Z"/>
  <path class="uuid-16d81e84-7525-46ab-ad37-e317cc03a194" d="m454.11,263.04h-2v-19.02l-10.98,19.02h-51.4l-10.98-19.02v19.02h-2v-19.02l-10.98,19.02h-51.4l-10.98-19.02v19.02h-2v-132.54h2v19.03l10.98-19.03h51.4l10.98,19.03v-19.03h2v19.03l10.98-19.03h51.4l10.98,19.03v-19.03h2v132.54Zm-12.41-88.03l10.41,18.03v-36.05l-10.41,18.02Zm0,43.51l10.41,18.03v-36.05l-10.41,18.02Zm-127.92,0l-10.41-18.02v36.05l10.41-18.03Zm0-43.51l-10.41-18.02v36.05l10.41-18.03Zm50.82-42.51h-20.81l31.22,18.03-10.41-18.03Zm15.87,18.03l31.22-18.03h-20.81l-10.41,18.03Zm37.68-16.29l10.41,18.03h20.81l-31.22-18.03Zm15.61,52.53l-15.61-9.01,10.41,18.03h20.81l-15.61-9.01Zm-127.66,9.01h20.81l10.41-18.03-31.22,18.03Zm72.64,40.78l10.41-18.03-10.41-18.02v36.05h0Zm-2-79.56l-10.41,18.02,10.41,18.02v-36.05h0Zm35.95,20.76l-31.22,18.03h20.82l10.41-18.03Zm-10.41,20.03h-20.81l31.22,18.02-10.41-18.02Zm-28.27-2l-31.22-18.03,10.41,18.03h20.82Zm-30.22-19.76h0l31.22,18.03-10.41-18.03h-20.81Zm-2.73,2.73v36.05l10.41-18.02-10.41-18.02Zm1.73,37.05l31.22-18.02h-20.81l-10.41,18.02Zm68.9,1.73h0l-31.22-18.03,10.41,18.03h20.81Zm2.73-2.73v-36.05l-10.41,18.02,10.41,18.02Zm-2.73-38.78h-20.81l-10.41,18.03,31.22-18.03h0Zm-22.54-1l-10.41-18.02h0v36.05l10.41-18.02Zm-29.75-10.01l-15.61,9.01h20.81l10.41-18.02h0s-15.61,9.01-15.61,9.01Zm-26.41,39.29l6.07,10.51v-36.05l-2.33,4.03-8.08,13.99,4.34,7.52Zm10.8,13.24h20.81l10.41-18.03-31.22,18.03h0Zm22.54,1l10.41,18.03h0v-36.05l-10.41,18.02Zm45.36,1h-20.81l-10.41,18.03h0s0,0,0,0l31.22-18.03Zm15.14-22.76l-10.41-18.03v36.05l10.41-18.02Zm-46.36-40.78h0s10.41,18.02,10.41,18.02h20.81l-31.22-18.02Zm-74.37,41.78l15.61,9.01,15.61,9.01-3.3-5.72-7.11-12.31h-20.81Zm53.29,30.77l15.61,9.01h0s0,0,0,0l-10.41-18.03h-20.81l15.61,9.01Zm74.37-21.76l15.61-9.01h-20.81l-10.41,18.02,15.61-9.01Zm15.61-52.53h-20.81l-10.41,18.02,31.22-18.02Zm-32.95-19.03v36.05l10.41-18.02-10.41-18.03Zm-12.41,18.03l10.41,18.02v-36.05l-10.41,18.03Zm-22.55,1l31.22,18.02-10.4-18.02h-20.81Zm-7.46,0h-20.81l-10.41,18.02,31.22-18.02Zm-32.95-19.03v36.05l10.41-18.02-10.41-18.03Zm-12.41,18.03l10.41,18.02v-36.05l-10.41,18.03Zm-22.54,1l31.22,18.02-10.41-18.02h-20.81Zm-1,1.73l10.41,18.02h20.81l-31.22-18.02Zm10.41,20.02l-10.41,18.03,31.22-18.03h-20.81Zm5.2,32.5l-15.61-9.01,10.41,18.02h20.81l-15.61-9.01Zm-5.2,11.01l-10.41,18.03,31.22-18.03h-20.81Zm-9.41,19.76h20.81l10.41-18.03-31.22,18.03Zm32.95,19.02v-36.05l-2.33,4.03-8.08,13.99,10.41,18.02Zm12.41-18.02l-10.41-18.03v36.05l10.41-18.02Zm22.55-1h0l-15.61-9.01-15.61-9.01,10.41,18.02h20.81Zm7.46,0h20.81l10.41-18.02-31.22,18.02h0Zm32.95,19.02v-36.05l-10.41,18.03,10.41,18.02Zm12.41-18.02l-10.41-18.03v36.05l10.41-18.02Zm22.55-1l-31.22-18.03,10.41,18.03h20.81Zm1-1.73l-10.41-18.03h-20.81l31.22,18.03Zm0-38.05l-15.61,9.01-15.61,9.01h20.81l10.41-18.02Zm0-5.47l-10.41-18.03h-20.81l15.61,9.01,15.61,9.01Zm0-38.05l-31.22,18.02h20.81l10.41-18.02Zm-68.9-3.73h20.81l10.41-18.02-31.22,18.02Zm-38.68-18.02l10.41,18.02h20.81l-31.22-18.02Zm-21.07,9.01l-15.61,9.01h20.81l10.41-18.03-15.61,9.01Zm-6.2,117.8h20.81l-31.22-18.02,10.41,18.02Zm21.81-1.73l-10.41-18.02h-20.81l31.22,18.02Zm36.68-18.02h-20.81l-10.41,18.02,31.22-18.02Zm-30.22,19.76h20.81l10.41-18.02-31.22,18.02Zm47.09,0h20.81l-31.22-18.02,10.41,18.02Zm21.81-1.73l-10.41-18.02h-20.81l31.22,18.02Zm36.68-18.02h-20.81l-10.41,18.02,31.22-18.02Zm-30.22,19.76h20.81l10.41-18.02-31.22,18.02Zm0-128.54l31.22,18.03-10.41-18.03h-20.81Zm-82.83,0h-20.81l-9.41,16.29-1,1.73,15.61-9.01,15.61-9.01Z"/>
  <path class="uuid-16d81e84-7525-46ab-ad37-e317cc03a194" d="m303.48,393.54h-2v-19.02l-10.98,19.02h-51.4l-10.98-19.02v19.02h-2v-19.02l-10.98,19.02h-51.4l-10.98-19.02v19.02h-2v-132.54h2v19.03l10.98-19.03h51.4l10.98,19.03v-19.03h2v19.03l10.98-19.03h51.4l10.98,19.03v-19.03h2v132.54Zm-12.41-88.03l10.41,18.03v-36.05l-10.41,18.02Zm0,43.51l10.41,18.03v-36.05l-10.41,18.02Zm-127.92,0l-10.41-18.02v36.05l10.41-18.03Zm0-43.51l-10.41-18.02v36.05l10.41-18.03Zm50.82-42.51h-20.81l31.22,18.03-10.41-18.03Zm15.87,18.03l31.22-18.03h-20.81l-10.41,18.03Zm37.68-16.29l10.41,18.03h20.81l-31.22-18.03Zm15.61,52.53l-15.61-9.01,10.41,18.03h20.81l-15.61-9.01Zm-127.66,9.01h20.81l10.41-18.03-31.22,18.03Zm72.64,40.78l10.41-18.03-10.41-18.02v36.05h0Zm-2-79.56l-10.41,18.02,10.41,18.02v-36.05h0Zm35.95,20.76l-31.22,18.03h20.82l10.41-18.03Zm-10.41,20.03h-20.81l31.22,18.02-10.41-18.02Zm-28.27-2l-31.22-18.03,10.41,18.03h20.82Zm-30.22-19.76h0l31.22,18.03-10.41-18.03h-20.81Zm-2.73,2.73v36.05l10.41-18.02-10.41-18.02Zm1.73,37.05l31.22-18.02h-20.81l-10.41,18.02Zm68.9,1.73h0l-31.22-18.03,10.41,18.03h20.81Zm2.73-2.73v-36.05l-10.41,18.02,10.41,18.02Zm-2.73-38.78h-20.81l-10.41,18.03,31.22-18.03h0Zm-22.54-1l-10.41-18.02h0v36.05l10.41-18.02Zm-29.75-10.01l-15.61,9.01h20.81l10.41-18.02h0s-15.61,9.01-15.61,9.01Zm-26.41,39.28l6.07,10.51v-36.05l-2.33,4.03-8.08,13.99,4.34,7.52Zm10.8,13.24h20.81l10.41-18.03-31.22,18.03h0Zm22.54,1l10.41,18.03h0v-36.05l-10.41,18.02Zm45.36,1h-20.81l-10.41,18.03h0s0,0,0,0l31.22-18.03Zm15.14-22.76l-10.41-18.03v36.05l10.41-18.02Zm-46.36-40.78h0s10.41,18.02,10.41,18.02h20.81l-31.22-18.02Zm-74.37,41.78l15.61,9.01,15.61,9.01-3.3-5.72-7.11-12.31h-20.81Zm53.29,30.77l15.61,9.01h0s0,0,0,0l-10.41-18.03h-20.81l15.61,9.01Zm74.37-21.76l15.61-9.01h-20.81l-10.41,18.02,15.61-9.01Zm15.61-52.53h-20.81l-10.41,18.02,31.22-18.02Zm-32.95-19.03v36.05l10.41-18.02-10.41-18.03Zm-12.41,18.03l10.41,18.02v-36.05l-10.41,18.03Zm-22.55,1l31.22,18.02-10.4-18.02h-20.81Zm-7.46,0h-20.81l-10.41,18.02,31.22-18.02Zm-32.95-19.03v36.05l10.41-18.02-10.41-18.03Zm-12.41,18.03l10.41,18.02v-36.05l-10.41,18.03Zm-22.54,1l31.22,18.02-10.41-18.02h-20.81Zm-1,1.73l10.41,18.02h20.81l-31.22-18.02Zm10.41,20.02l-10.41,18.03,31.22-18.03h-20.81Zm5.2,32.5l-15.61-9.01,10.41,18.02h20.81l-15.61-9.01Zm-5.2,11.01l-10.41,18.03,31.22-18.03h-20.81Zm-9.41,19.76h20.81l10.41-18.03-31.22,18.03Zm32.95,19.02v-36.05l-2.33,4.03-8.08,13.99,10.41,18.02Zm12.41-18.02l-10.41-18.03v36.05l10.41-18.02Zm22.55-1h0l-15.61-9.01-15.61-9.01,10.41,18.02h20.81Zm7.46,0h20.81l10.41-18.02-31.22,18.02h0Zm32.95,19.02v-36.05l-10.41,18.03,10.41,18.02Zm12.41-18.02l-10.41-18.03v36.05l10.41-18.02Zm22.55-1l-31.22-18.03,10.41,18.03h20.81Zm1-1.73l-10.41-18.03h-20.81l31.22,18.03Zm0-38.05l-15.61,9.01-15.61,9.01h20.81l10.41-18.02Zm0-5.47l-10.41-18.03h-20.81l15.61,9.01,15.61,9.01Zm0-38.05l-31.22,18.02h20.81l10.41-18.02Zm-68.9-3.73h20.81l10.41-18.02-31.22,18.02Zm-38.68-18.02l10.41,18.02h20.81l-31.22-18.02Zm-21.07,9.01l-15.61,9.01h20.81l10.41-18.03-15.61,9.01Zm-6.2,117.8h20.81l-31.22-18.02,10.41,18.02Zm21.81-1.73l-10.41-18.02h-20.81l31.22,18.02Zm36.68-18.02h-20.81l-10.41,18.02,31.22-18.02Zm-30.22,19.76h20.81l10.41-18.02-31.22,18.02Zm47.09,0h20.81l-31.22-18.02,10.41,18.02Zm21.81-1.73l-10.41-18.02h-20.81l31.22,18.02Zm36.68-18.02h-20.81l-10.41,18.02,31.22-18.02Zm-30.22,19.76h20.81l10.41-18.02-31.22,18.02Zm0-128.54l31.22,18.03-10.41-18.03h-20.81Zm-82.83,0h-20.81l-9.41,16.29-1,1.73,15.61-9.01,15.61-9.01Z"/>
  <path class="uuid-16d81e84-7525-46ab-ad37-e317cc03a194" d="m454.11,393.54h-2v-19.02l-10.98,19.02h-51.4l-10.98-19.02v19.02h-2v-19.02l-10.98,19.02h-51.4l-10.98-19.02v19.02h-2v-132.54h2v19.03l10.98-19.03h51.4l10.98,19.03v-19.03h2v19.03l10.98-19.03h51.4l10.98,19.03v-19.03h2v132.54Zm-12.41-88.03l10.41,18.03v-36.05l-10.41,18.02Zm0,43.51l10.41,18.03v-36.05l-10.41,18.02Zm-127.92,0l-10.41-18.02v36.05l10.41-18.03Zm0-43.51l-10.41-18.02v36.05l10.41-18.03Zm50.82-42.51h-20.81l31.22,18.03-10.41-18.03Zm15.87,18.03l31.22-18.03h-20.81l-10.41,18.03Zm37.68-16.29l10.41,18.03h20.81l-31.22-18.03Zm15.61,52.53l-15.61-9.01,10.41,18.03h20.81l-15.61-9.01Zm-127.66,9.01h20.81l10.41-18.03-31.22,18.03Zm72.64,40.78l10.41-18.03-10.41-18.02v36.05h0Zm-2-79.56l-10.41,18.02,10.41,18.02v-36.05h0Zm35.95,20.76l-31.22,18.03h20.82l10.41-18.03Zm-10.41,20.03h-20.81l31.22,18.02-10.41-18.02Zm-28.27-2l-31.22-18.03,10.41,18.03h20.82Zm-30.22-19.76h0l31.22,18.03-10.41-18.03h-20.81Zm-2.73,2.73v36.05l10.41-18.02-10.41-18.02Zm1.73,37.05l31.22-18.02h-20.81l-10.41,18.02Zm68.9,1.73h0l-31.22-18.03,10.41,18.03h20.81Zm2.73-2.73v-36.05l-10.41,18.02,10.41,18.02Zm-2.73-38.78h-20.81l-10.41,18.03,31.22-18.03h0Zm-22.54-1l-10.41-18.02h0v36.05l10.41-18.02Zm-29.75-10.01l-15.61,9.01h20.81l10.41-18.02h0s-15.61,9.01-15.61,9.01Zm-26.41,39.28l6.07,10.51v-36.05l-2.33,4.03-8.08,13.99,4.34,7.52Zm10.8,13.24h20.81l10.41-18.03-31.22,18.03h0Zm22.54,1l10.41,18.03h0v-36.05l-10.41,18.02Zm45.36,1h-20.81l-10.41,18.03h0s0,0,0,0l31.22-18.03Zm15.14-22.76l-10.41-18.03v36.05l10.41-18.02Zm-46.36-40.78h0s10.41,18.02,10.41,18.02h20.81l-31.22-18.02Zm-74.37,41.78l15.61,9.01,15.61,9.01-3.3-5.72-7.11-12.31h-20.81Zm53.29,30.77l15.61,9.01h0s0,0,0,0l-10.41-18.03h-20.81l15.61,9.01Zm74.37-21.76l15.61-9.01h-20.81l-10.41,18.02,15.61-9.01Zm15.61-52.53h-20.81l-10.41,18.02,31.22-18.02Zm-32.95-19.03v36.05l10.41-18.02-10.41-18.03Zm-12.41,18.03l10.41,18.02v-36.05l-10.41,18.03Zm-22.55,1l31.22,18.02-10.4-18.02h-20.81Zm-7.46,0h-20.81l-10.41,18.02,31.22-18.02Zm-32.95-19.03v36.05l10.41-18.02-10.41-18.03Zm-12.41,18.03l10.41,18.02v-36.05l-10.41,18.03Zm-22.54,1l31.22,18.02-10.41-18.02h-20.81Zm-1,1.73l10.41,18.02h20.81l-31.22-18.02Zm10.41,20.02l-10.41,18.03,31.22-18.03h-20.81Zm5.2,32.5l-15.61-9.01,10.41,18.02h20.81l-15.61-9.01Zm-5.2,11.01l-10.41,18.03,31.22-18.03h-20.81Zm-9.41,19.76h20.81l10.41-18.03-31.22,18.03Zm32.95,19.02v-36.05l-2.33,4.03-8.08,13.99,10.41,18.02Zm12.41-18.02l-10.41-18.03v36.05l10.41-18.02Zm22.55-1h0l-15.61-9.01-15.61-9.01,10.41,18.02h20.81Zm7.46,0h20.81l10.41-18.02-31.22,18.02h0Zm32.95,19.02v-36.05l-10.41,18.03,10.41,18.02Zm12.41-18.02l-10.41-18.03v36.05l10.41-18.02Zm22.55-1l-31.22-18.03,10.41,18.03h20.81Zm1-1.73l-10.41-18.03h-20.81l31.22,18.03Zm0-38.05l-15.61,9.01-15.61,9.01h20.81l10.41-18.02Zm0-5.47l-10.41-18.03h-20.81l15.61,9.01,15.61,9.01Zm0-38.05l-31.22,18.02h20.81l10.41-18.02Zm-68.9-3.73h20.81l10.41-18.02-31.22,18.02Zm-38.68-18.02l10.41,18.02h20.81l-31.22-18.02Zm-21.07,9.01l-15.61,9.01h20.81l10.41-18.03-15.61,9.01Zm-6.2,117.8h20.81l-31.22-18.02,10.41,18.02Zm21.81-1.73l-10.41-18.02h-20.81l31.22,18.02Zm36.68-18.02h-20.81l-10.41,18.02,31.22-18.02Zm-30.22,19.76h20.81l10.41-18.02-31.22,18.02Zm47.09,0h20.81l-31.22-18.02,10.41,18.02Zm21.81-1.73l-10.41-18.02h-20.81l31.22,18.02Zm36.68-18.02h-20.81l-10.41,18.02,31.22-18.02Zm-30.22,19.76h20.81l10.41-18.02-31.22,18.02Zm0-128.54l31.22,18.03-10.41-18.03h-20.81Zm-82.83,0h-20.81l-9.41,16.29-1,1.73,15.61-9.01,15.61-9.01Z"/>
</svg>