<?xml version="1.0" standalone="no"?>
<!DOCTYPE svg PUBLIC "-//W3C//DTD SVG 20010904//EN"
 "http://www.w3.org/TR/2001/REC-SVG-20010904/DTD/svg10.dtd">
<svg version="1.0" xmlns="http://www.w3.org/2000/svg"
 width="1024.000000pt" height="1024.000000pt" viewBox="0 0 1024.000000 1024.000000"
 preserveAspectRatio="xMidYMid meet">
<metadata>
Created by potrace 1.16, written by Peter Selinger 2001-2019
</metadata>
<g transform="translate(0.000000,1024.000000) scale(0.100000,-0.100000)"
fill="#000000" stroke="none">
<path d="M4607 9515 c-1 -1 -49 -5 -107 -9 -58 -3 -116 -8 -130 -10 -14 -3
-52 -7 -85 -11 -195 -21 -551 -113 -820 -212 -165 -61 -481 -214 -645 -312
-643 -386 -1140 -893 -1535 -1566 -105 -179 -162 -298 -261 -543 -129 -322
-198 -567 -254 -904 -56 -333 -23 -500 117 -615 97 -78 120 -81 567 -82 319
-1 387 1 378 12 -6 7 -25 40 -41 74 -83 167 -81 355 9 728 108 452 272 787
586 1205 308 409 740 763 1241 1014 227 113 550 225 728 250 22 4 65 10 95 16
30 5 102 7 160 6 124 -3 227 -34 328 -97 35 -21 65 -39 66 -39 2 0 2 10 -1 23
-2 12 -4 202 -6 422 -2 392 -2 401 -24 445 -59 117 -173 192 -311 203 -28 2
-53 3 -55 2z"/>
<path d="M5510 9506 c-107 -22 -211 -109 -245 -204 -12 -31 -19 -88 -21 -167
-6 -161 -10 -705 -6 -705 2 0 23 14 48 31 54 37 136 75 184 86 43 9 279 10
340 1 253 -37 618 -162 890 -305 138 -72 403 -238 522 -326 281 -208 518 -461
747 -802 274 -406 404 -707 490 -1134 36 -179 39 -199 47 -331 7 -131 -12
-235 -60 -332 l-34 -68 386 1 c338 1 394 3 438 18 117 39 214 147 249 276 22
81 16 218 -20 430 -96 567 -323 1142 -643 1629 -176 268 -417 561 -628 766
-135 130 -135 131 -299 261 -463 369 -948 613 -1515 763 -150 39 -356 82 -440
91 -30 4 -65 8 -77 10 -13 2 -71 7 -130 10 -60 4 -121 8 -138 10 -16 1 -55 -3
-85 -9z"/>
<path d="M5553 8408 c-81 -9 -148 -39 -202 -91 -78 -75 -90 -154 -32 -216 77
-83 213 -57 271 52 30 56 61 71 139 69 99 -2 357 -67 525 -132 293 -113 663
-336 910 -550 173 -149 391 -392 543 -606 180 -253 320 -552 399 -852 68 -257
89 -435 55 -476 -7 -9 -33 -25 -57 -35 -79 -35 -106 -119 -64 -200 50 -99 140
-117 221 -44 123 111 136 305 48 693 -56 243 -194 594 -311 790 -269 449 -574
791 -930 1043 -196 138 -560 333 -769 411 -271 100 -588 162 -746 144z"/>
<path d="M4440 8400 c-50 -9 -93 -17 -130 -25 -397 -78 -990 -379 -1324 -671
-101 -88 -303 -294 -390 -397 -338 -401 -539 -788 -656 -1262 -102 -415 -88
-609 54 -725 23 -19 42 -25 81 -25 81 0 131 50 142 145 8 65 -22 112 -85 137
-64 24 -76 55 -68 168 7 112 34 231 85 383 178 532 398 883 805 1285 207 205
413 360 676 509 294 167 674 298 875 301 76 1 105 -12 134 -63 81 -145 259
-145 302 0 17 55 4 89 -55 146 -77 75 -140 97 -286 100 -63 1 -135 -1 -160 -6z"/>
<path d="M4929 7926 c-2 -2 -44 -6 -94 -10 -49 -3 -101 -8 -115 -11 -27 -5
-148 -24 -195 -31 -92 -15 -378 -107 -510 -164 -321 -141 -598 -324 -834 -554
-254 -248 -474 -553 -601 -835 -119 -264 -188 -501 -234 -811 -29 -195 -25
-572 9 -802 23 -154 106 -476 153 -595 135 -338 320 -629 556 -873 307 -317
512 -468 861 -636 220 -106 449 -184 605 -207 19 -3 76 -12 125 -21 271 -46
605 -54 835 -20 349 51 605 129 878 268 373 191 649 414 928 751 347 419 560
943 612 1499 13 142 6 501 -12 641 -80 617 -344 1152 -790 1601 -147 148 -260
240 -432 354 -340 223 -684 357 -1095 424 -14 2 -57 7 -95 11 -38 4 -78 10
-89 12 -23 6 -461 14 -466 9z m-1 -3971 l-3 -1203 -1209 1206 -1209 1205 980
976 c539 537 1083 1081 1209 1209 l229 233 3 -1211 c1 -667 1 -1753 0 -2415z
m1583 2419 c662 -663 1206 -1207 1208 -1209 5 -5 -2403 -2415 -2412 -2415 -4
0 -8 1087 -9 2415 -2 1328 0 2415 3 2415 3 0 547 -543 1210 -1206z m-2874 578
c85 -44 127 -122 120 -225 -5 -83 -38 -136 -109 -180 -154 -95 -352 16 -352
198 0 97 50 171 144 215 55 26 137 22 197 -8z m3157 13 c96 -40 153 -133 143
-235 -11 -129 -106 -214 -237 -214 -136 0 -230 93 -230 229 0 96 51 177 135
216 49 23 139 25 189 4z m38 -3230 c149 -99 137 -325 -21 -402 -81 -40 -160
-39 -226 2 -119 73 -152 213 -79 331 65 106 220 139 326 69z m-3220 21 c56
-20 95 -56 124 -115 75 -148 -19 -317 -189 -338 -57 -7 -121 15 -171 58 -160
141 -60 406 154 408 25 0 61 -6 82 -13z"/>
<path d="M3764 6030 l-872 -868 869 -868 c477 -477 871 -866 874 -863 3 3 4
785 3 1736 l-3 1731 -871 -868z"/>
<path d="M5595 5155 c0 -960 0 -1745 1 -1745 0 0 394 394 875 875 l874 875
-871 870 c-479 479 -872 870 -875 870 -2 0 -4 -785 -4 -1745z"/>
<path d="M1032 5004 c-72 -19 -107 -38 -165 -92 -107 -101 -140 -233 -112
-452 58 -451 195 -904 405 -1335 92 -189 123 -244 247 -432 346 -525 806 -985
1328 -1325 559 -366 1278 -613 1846 -634 189 -7 279 33 366 161 47 69 51 113
51 551 l-1 411 -56 -37 c-109 -72 -156 -84 -331 -84 -216 -1 -415 40 -687 139
-129 47 -511 237 -640 319 -387 243 -756 602 -1052 1022 -230 328 -396 738
-465 1149 -24 147 -27 166 -31 270 -5 125 11 213 56 302 19 37 35 71 37 75 2
3 -165 6 -370 6 -282 0 -386 -4 -426 -14z"/>
<path d="M8503 5012 l-92 -3 34 -62 c51 -93 68 -180 61 -312 -3 -60 -8 -121
-11 -135 -2 -13 -7 -42 -10 -65 -11 -78 -57 -271 -92 -385 -134 -445 -339
-808 -668 -1185 -218 -250 -439 -442 -750 -652 -304 -205 -690 -373 -1005
-437 -179 -37 -220 -41 -365 -41 -153 1 -203 14 -302 81 l-64 45 3 -433 3
-433 26 -55 c69 -148 180 -212 364 -211 115 1 156 5 350 36 55 9 120 21 145
26 25 6 52 12 60 14 94 20 386 106 500 147 130 47 400 169 550 248 553 293
1170 854 1525 1387 197 295 351 584 460 863 127 324 188 552 260 975 2 17 8
75 11 130 12 182 -42 306 -173 396 -89 62 -99 63 -428 64 -165 0 -341 -1 -392
-3z"/>
<path d="M2014 4961 c-47 -29 -102 -99 -120 -155 -26 -77 -26 -179 0 -368 28
-199 143 -562 244 -768 173 -351 348 -598 616 -865 399 -399 789 -644 1306
-823 236 -81 400 -111 590 -107 96 1 155 22 225 80 51 42 75 88 75 148 0 78
-62 127 -160 127 -74 0 -105 -20 -140 -91 -38 -75 -66 -89 -165 -84 -209 10
-670 184 -955 360 -112 70 -324 220 -425 303 -99 81 -350 332 -431 432 -136
167 -296 421 -394 625 -113 235 -202 547 -217 760 -7 104 3 128 67 160 60 30
90 74 90 130 -1 112 -118 190 -206 136z"/>
<path d="M8100 4963 c-48 -25 -83 -93 -77 -150 6 -58 28 -88 85 -117 69 -35
72 -40 68 -137 -6 -142 -81 -436 -167 -651 -91 -230 -272 -537 -437 -741 -272
-339 -578 -590 -1012 -834 -326 -182 -827 -323 -924 -259 -13 8 -35 36 -48 62
-32 65 -65 87 -137 92 -72 5 -120 -19 -145 -72 -53 -113 36 -233 203 -272 212
-50 729 82 1116 285 137 72 402 241 509 325 105 82 298 259 406 372 417 435
701 997 799 1584 38 225 35 316 -15 418 -45 92 -146 135 -224 95z"/>
</g>
</svg>
